<?xml version="1.0" encoding="UTF-8"?>
<svg version="1.1" xmlns="http://www.w3.org/2000/svg" width="1000" height="1000">
<path d="M0 0 C1.02464024 -0.00235223 2.04928048 -0.00470446 3.10497043 -0.00712797 C6.54860289 -0.01380063 9.99219746 -0.01336027 13.43583584 -0.01294994 C15.92582759 -0.01624966 18.41581881 -0.01997546 20.90580934 -0.02409142 C27.03822906 -0.0330569 33.1706375 -0.03733717 39.30306287 -0.03961039 C46.64953492 -0.04257613 53.99599742 -0.05127586 61.34246445 -0.06002467 C79.10115021 -0.08085741 96.85983762 -0.09133796 114.61853274 -0.10015428 C123.02469242 -0.10436341 131.43085138 -0.10958512 139.83701046 -0.11483881 C168.62760829 -0.1327301 197.41820634 -0.1477239 226.2088089 -0.155159 C228.01597274 -0.15563375 229.82313659 -0.15610964 231.63030043 -0.15658666 C232.52647015 -0.15682303 233.42263988 -0.15705941 234.34596626 -0.15730295 C238.8862123 -0.15850412 243.42645833 -0.15971958 247.96670437 -0.16094494 C248.86772214 -0.16118509 249.76873991 -0.16142524 250.69706124 -0.16167267 C279.88862075 -0.16955981 309.08013955 -0.19297901 338.27168129 -0.22550088 C369.15337769 -0.25984271 400.0350503 -0.27951427 430.91676611 -0.28280324 C434.31083263 -0.28322075 437.70489914 -0.28370031 441.09896564 -0.28422642 C441.93464603 -0.28434961 442.77032641 -0.2844728 443.63133044 -0.28459973 C457.04876356 -0.28692659 470.46614921 -0.30255801 483.88356545 -0.32306826 C497.38720738 -0.34338176 510.89079265 -0.34877758 524.39444704 -0.33929763 C532.40390762 -0.33410372 540.41317878 -0.3398595 548.42261189 -0.3618323 C554.42368737 -0.37704239 560.42455338 -0.37102418 566.42563992 -0.35716178 C568.8383262 -0.35479473 571.25103107 -0.35906181 573.66368902 -0.37099043 C588.79720524 -0.44112168 602.95667365 0.82872707 617.73599148 4.13422108 C618.49937769 4.30355922 619.26276391 4.47289736 620.04928304 4.64736696 C671.21600549 16.12856848 717.48958268 45.96067515 748.73599148 88.13422108 C749.4295071 89.0442992 750.12302273 89.95437733 750.83755398 90.89203358 C764.35809173 108.9373728 774.71147055 128.70304633 781.73599148 150.13422108 C782.14204617 151.22605701 782.54810085 152.31789295 782.96646023 153.44281483 C789.12881026 170.45090092 792.89854098 189.30553251 792.87021255 207.3982296 C792.87256479 208.42286984 792.87491702 209.44751008 792.87734053 210.50320002 C792.88401318 213.94683249 792.88357282 217.39042706 792.8831625 220.83406544 C792.88646222 223.32405719 792.89018801 225.81404841 792.89430398 228.30403894 C792.90326946 234.43645866 792.90754972 240.5688671 792.90982294 246.70129247 C792.91278868 254.04776452 792.92148841 261.39422702 792.93023722 268.74069405 C792.95106996 286.49937981 792.96155052 304.25806722 792.97036683 322.01676234 C792.97457597 330.42292202 792.97979767 338.82908098 792.98505136 347.23524006 C793.00294266 376.02583789 793.01793646 404.81643594 793.02537155 433.6070385 C793.0258463 435.41420234 793.02632219 437.22136618 793.02679921 439.02853003 C793.02715378 440.37278461 793.02715378 440.37278461 793.0275155 441.74419586 C793.02871667 446.2844419 793.02993213 450.82468793 793.03115749 455.36493397 C793.03139764 456.26595174 793.03163779 457.16696951 793.03188522 458.09529084 C793.03977237 487.28685035 793.06319156 516.47836915 793.09571344 545.66991089 C793.13005527 576.55160729 793.14972683 607.4332799 793.15301579 638.31499571 C793.15343331 641.70906223 793.15391287 645.10312874 793.15443897 648.49719524 C793.15456216 649.33287563 793.15468536 650.16855601 793.15481228 651.02956004 C793.15713914 664.44699315 793.17277057 677.86437881 793.19328082 691.28179505 C793.21359431 704.78543698 793.21899014 718.28902225 793.20951018 731.79267664 C793.20431628 739.80213722 793.21007206 747.81140838 793.23204486 755.82084149 C793.24725494 761.82191697 793.24123673 767.82278298 793.22737434 773.82386952 C793.22500728 776.2365558 793.22927437 778.64926067 793.24120299 781.06191862 C793.31133431 796.19544969 792.04143599 810.35488388 788.73599148 825.13422108 C788.48205224 826.27916444 788.48205224 826.27916444 788.22298292 827.44723798 C775.38444415 884.66987375 739.64561376 934.12809168 690.73599148 966.13422108 C676.09249223 975.31160441 660.95738059 982.6120081 644.69741726 988.42718983 C642.87951161 989.08248666 641.070943 989.76353074 639.26333523 990.44672108 C622.31098896 996.56256189 603.49351542 1000.29665915 585.47198296 1000.26844215 C584.44734272 1000.27079438 583.42270248 1000.27314661 582.36701253 1000.27557012 C578.92338007 1000.28224278 575.47978549 1000.28180242 572.03614712 1000.2813921 C569.54615537 1000.28469182 567.05616415 1000.28841761 564.56617361 1000.29253358 C558.4337539 1000.30149905 552.30134545 1000.30577932 546.16892008 1000.30805254 C538.82244804 1000.31101828 531.47598554 1000.31971801 524.12951851 1000.32846682 C506.37083275 1000.34929956 488.61214534 1000.35978011 470.85345021 1000.36859643 C462.44729054 1000.37280557 454.04113157 1000.37802727 445.6349725 1000.38328096 C416.84437466 1000.40117226 388.05377662 1000.41616605 359.26317406 1000.42360115 C357.45601021 1000.4240759 355.64884637 1000.42455179 353.84168253 1000.42502881 C352.9455128 1000.42526519 352.04934308 1000.42550156 351.1260167 1000.4257451 C346.58577066 1000.42694627 342.04552462 1000.42816173 337.50527859 1000.42938709 C336.60426082 1000.42962724 335.70324305 1000.42986739 334.77492171 1000.43011482 C305.58336221 1000.43800197 276.39184341 1000.46142116 247.20030166 1000.49394304 C216.31860526 1000.52828487 185.43693266 1000.54795643 154.55521685 1000.55124539 C151.16115033 1000.55166291 147.76708382 1000.55214247 144.37301731 1000.55266857 C143.53733693 1000.55279176 142.70165655 1000.55291495 141.84065252 1000.55304188 C128.4232194 1000.55536874 115.00583374 1000.57100017 101.58841751 1000.59151042 C88.08477557 1000.61182391 74.5811903 1000.61721974 61.07753592 1000.60773978 C53.06807534 1000.60254587 45.05880417 1000.60830166 37.04937107 1000.63027446 C31.04829559 1000.64548454 25.04742958 1000.63946633 19.04634304 1000.62560394 C16.63365676 1000.62323688 14.22095188 1000.62750397 11.80829393 1000.63943259 C-3.32522228 1000.70956384 -17.48469069 999.43971508 -32.26400852 996.13422108 C-33.40908784 995.88021386 -33.40908784 995.88021386 -34.57730008 995.62107519 C-84.74220662 984.36466921 -131.24064095 955.25202572 -162.00180149 913.83124256 C-162.89377996 912.63198872 -163.79474681 911.43939545 -164.7019968 910.25165272 C-178.57797082 892.02906907 -189.13341404 871.88901659 -196.26400852 850.13422108 C-196.67006321 849.04238514 -197.0761179 847.9505492 -197.49447727 846.82562733 C-203.6568273 829.81754124 -207.42655802 810.96290965 -207.3982296 792.87021255 C-207.40058183 791.84557231 -207.40293406 790.82093207 -207.40535757 789.76524213 C-207.41203023 786.32160967 -207.41158987 782.87801509 -207.41117954 779.43437672 C-207.41447926 776.94438497 -207.41820506 774.45439375 -207.42232102 771.96440321 C-207.4312865 765.8319835 -207.43556677 759.69957505 -207.43783999 753.56714968 C-207.44080573 746.22067764 -207.44950546 738.87421514 -207.45825427 731.52774811 C-207.47908701 713.76906235 -207.48956756 696.01037494 -207.49838388 678.25167981 C-207.50259301 669.84552013 -207.50781472 661.43936117 -207.5130684 653.03320209 C-207.5309597 624.24260426 -207.5459535 595.45200622 -207.5533886 566.66140366 C-207.55386335 564.85423981 -207.55433924 563.04707597 -207.55481626 561.23991213 C-207.55505263 560.3437424 -207.55528901 559.44757268 -207.55553255 558.5242463 C-207.55673371 553.98400026 -207.55794917 549.44375422 -207.55917454 544.90350819 C-207.55941469 544.00249042 -207.55965484 543.10147265 -207.55990226 542.17315131 C-207.56778941 512.9815918 -207.59120861 483.79007301 -207.62373048 454.59853126 C-207.65807231 423.71683486 -207.67774387 392.83516226 -207.68103284 361.95344645 C-207.68145035 358.55937993 -207.68192991 355.16531342 -207.68245602 351.77124691 C-207.68257921 350.93556653 -207.6827024 350.09988615 -207.68282932 349.23888211 C-207.68515619 335.821449 -207.70078761 322.40406334 -207.72129786 308.98664711 C-207.74161136 295.48300517 -207.74700718 281.9794199 -207.73752723 268.47576552 C-207.73233332 260.46630494 -207.7380891 252.45703377 -207.7600619 244.44760067 C-207.77527198 238.44652519 -207.76925378 232.44565918 -207.75539138 226.44457263 C-207.75302433 224.03188636 -207.75729141 221.61918148 -207.76922003 219.20652353 C-207.83935135 204.07299246 -206.56945304 189.91355828 -203.26400852 175.13422108 C-203.01006929 173.98927771 -203.01006929 173.98927771 -202.75099996 172.82120418 C-194.62819388 136.61705491 -177.73965542 103.92990841 -153.26400852 76.13422108 C-152.6736179 75.43297108 -152.08322727 74.73172108 -151.47494602 74.00922108 C-127.13104951 45.22825968 -94.52416732 24.46542268 -59.2254343 11.84125233 C-57.40752865 11.18595549 -55.59896004 10.50491142 -53.79135227 9.82172108 C-36.839006 3.70588026 -18.02153246 -0.028217 0 0 Z " fill="#F0F0F1" transform="translate(207.2640085220337,-0.13422107696533203)"/>
<path d="M0 0 C1.52359634 -0.00200912 1.52359634 -0.00200912 3.07797241 -0.00405884 C25.89044428 0.00244051 48.73623628 1.09477411 71.12841797 5.79785156 C73.68615647 6.32735432 76.25074618 6.8150344 78.81640625 7.3046875 C93.25058559 10.11866872 107.27639374 13.87751014 121.3125 18.25 C122.55 18.63285156 123.7875 19.01570313 125.0625 19.41015625 C131.98204995 21.63558443 138.63221272 24.39696064 145.3125 27.25 C146.16279785 27.59716064 147.0130957 27.94432129 147.88916016 28.30200195 C155.61740903 31.46807457 163.16826525 34.9296654 170.6875 38.5625 C171.28054932 38.8489035 171.87359863 39.13530701 172.48461914 39.4303894 C181.31988885 43.70609043 189.95168863 48.09740694 198.3125 53.25 C199.36147461 53.88856934 199.36147461 53.88856934 200.43164062 54.54003906 C221.67223336 67.50238552 241.69606998 82.14053014 259.953125 99.07421875 C261.9516708 100.91724857 263.98565493 102.68460726 266.0625 104.4375 C275.4664806 112.61487444 284.29544562 121.71763424 292.3125 131.25 C293.60994141 132.71373047 293.60994141 132.71373047 294.93359375 134.20703125 C307.82475276 148.80673451 318.77429948 164.89841853 329.3125 181.25 C329.69825195 181.84748047 330.08400391 182.44496094 330.48144531 183.06054688 C336.00700967 191.71313464 340.76787507 200.77163269 345.5 209.875 C346.37374268 211.55517212 346.37374268 211.55517212 347.26513672 213.26928711 C352.76618905 223.95586031 358.01705811 234.64210815 361.8125 246.0625 C362.40320618 247.8013739 362.99567595 249.53964963 363.58984375 251.27734375 C363.87843262 252.12151855 364.16702148 252.96569336 364.46435547 253.83544922 C365.45673926 256.66062932 366.53534219 259.44436768 367.6328125 262.22998047 C373.65837336 277.61498159 377.31946123 293.67221407 380.6875 309.8125 C381.08195313 311.69521606 381.08195313 311.69521606 381.484375 313.6159668 C381.84402344 315.38580933 381.84402344 315.38580933 382.2109375 317.19140625 C382.42411621 318.24013916 382.63729492 319.28887207 382.85693359 320.36938477 C383.28188747 323.05643237 383.40058141 325.53603067 383.3125 328.25 C382.78785156 328.09144531 382.26320313 327.93289063 381.72265625 327.76953125 C377.05269052 326.3631023 372.37785473 324.97498411 367.69677734 323.60595703 C366.67124756 323.3060083 366.67124756 323.3060083 365.625 323 C364.91424316 322.7922998 364.20348633 322.58459961 363.47119141 322.37060547 C359.19252803 321.11445867 354.92465384 319.82793457 350.6640625 318.51171875 C349.68397217 318.20975586 348.70388184 317.90779297 347.6940918 317.59667969 C345.8064069 317.01373429 343.91974951 316.42744492 342.03442383 315.83691406 C334.55777664 313.53063794 326.99920743 311.62053366 319.40219116 309.76229858 C315.97795643 308.92282975 312.55750397 308.06823978 309.13671875 307.21484375 C307.78060798 306.87691692 306.42448819 306.53902627 305.06835938 306.20117188 C304.39828857 306.03415771 303.72821777 305.86714355 303.0378418 305.69506836 C301.67043173 305.35448545 300.30291727 305.01432147 298.93530273 304.67456055 C296.8979857 304.16830644 294.86100861 303.66071446 292.82421875 303.15234375 C292.16900238 302.98907089 291.51378601 302.82579803 290.8387146 302.65757751 C287.09823715 301.7191 283.38395209 300.71433004 279.67578125 299.65625 C273.46412249 297.9414741 267.16108635 296.88604866 260.8125 295.8125 C252.7341468 294.4137764 244.6912704 292.96503316 236.6875 291.1875 C227.14754162 289.09392477 217.52085748 287.6795857 207.86328125 286.24609375 C203.82908339 285.64393083 199.80829549 285.00230889 195.79296875 284.28515625 C175.75114178 280.70825562 155.53472252 278.52597015 135.3125 276.25 C133.83305908 276.08310669 133.83305908 276.08310669 132.32373047 275.9128418 C102.17155205 272.46086685 102.17155205 272.46086685 71.94287109 269.79418945 C70.70077881 269.7027063 70.70077881 269.7027063 69.43359375 269.609375 C68.7470874 269.56264648 68.06058105 269.51591797 67.35327148 269.46777344 C65.3125 269.25 65.3125 269.25 62.98986816 268.75970459 C60.44371026 268.27497918 58.01903056 268.02781728 55.43383789 267.87695312 C54.4925856 267.82019409 53.55133331 267.76343506 52.58155823 267.70495605 C51.57624557 267.64763306 50.57093292 267.59031006 49.53515625 267.53125 C48.49105087 267.46844849 47.4469455 267.40564697 46.37120056 267.34094238 C43.03931995 267.14067263 39.70720241 266.9448375 36.375 266.75 C31.99065869 266.49323502 27.60660051 266.23219687 23.22265625 265.96875 C22.21936783 265.911427 21.21607941 265.854104 20.18238831 265.79504395 C19.23798386 265.73828491 18.29357941 265.68152588 17.32055664 265.62304688 C16.08409142 265.55096008 16.08409142 265.55096008 14.82264709 265.47741699 C12.3125 265.25 12.3125 265.25 9.36717224 264.75276184 C6.37077874 264.25959197 3.46029174 264.00546535 0.4296875 263.83276367 C-1.29331825 263.73188446 -1.29331825 263.73188446 -3.0511322 263.62896729 C-4.29238358 263.55933777 -5.53363495 263.48970825 -6.8125 263.41796875 C-8.82130858 263.30068883 -10.83011668 263.18340036 -12.83890438 263.06576347 C-14.97930882 262.94080264 -17.11978735 262.81718032 -19.26028442 262.69381714 C-26.76664356 262.26031706 -34.27213251 261.81227714 -41.77734375 261.359375 C-42.53623335 261.31358244 -43.29512295 261.26778988 -44.0770092 261.22060966 C-64.24853471 259.99881282 -84.39745853 258.49204362 -104.54632568 256.94488525 C-111.3693446 256.42197812 -118.19360713 255.92094383 -125.01953125 255.4375 C-220.26471413 248.68204624 -220.26471413 248.68204624 -241.6875 239.25 C-241.6875 238.59 -241.6875 237.93 -241.6875 237.25 C-223.39660923 232.93199853 -204.76276556 231.83836366 -186.06661987 230.63116455 C-170.66982642 229.62865403 -155.41590307 228.07090779 -140.109375 226.15625 C-133.05842786 225.27532923 -126.00565845 224.59296613 -118.92515564 224.00474548 C-111.77478076 223.39083418 -104.65821321 222.56318802 -97.53515625 221.69140625 C-96.3898645 221.55255005 -95.24457275 221.41369385 -94.0645752 221.27062988 C-91.27203919 220.93185367 -88.47968956 220.59161778 -85.6875 220.25 C-162.8622093 219.38793126 -162.8622093 219.38793126 -239.85076904 223.97790527 C-243.57531481 224.33515779 -247.302797 224.65159376 -251.03109741 224.96681213 C-268.17990233 226.42266298 -285.19776269 228.43028489 -302.1875 231.1875 C-303.27800156 231.36064728 -303.27800156 231.36064728 -304.39053345 231.53729248 C-312.20454125 232.79576383 -319.8231472 234.40706793 -327.40625 236.69140625 C-328.39280579 236.98083351 -328.39280579 236.98083351 -329.39929199 237.27610779 C-333.5394274 238.59122109 -336.4658808 240.35108119 -339.6875 243.25 C-339.31309438 245.71852211 -339.03228967 246.94347205 -337.13647461 248.62890625 C-332.31426405 251.50549993 -327.62162713 253.62405382 -322.25 255.25 C-321.44578613 255.49854736 -320.64157227 255.74709473 -319.81298828 256.00317383 C-308.95743611 259.22453687 -297.81775974 261.23540042 -286.6875 263.25 C-286.05485229 263.36678101 -285.42220459 263.48356201 -284.77038574 263.60388184 C-273.94535267 265.60107467 -263.1078331 267.24562967 -252.1875 268.625 C-251.36825043 268.72916229 -250.54900085 268.83332458 -249.70492554 268.94064331 C-213.79394686 273.48271133 -177.77879918 276.70563782 -141.68359375 279.35546875 C-133.25680497 279.97561979 -124.83218067 280.61877009 -116.41015625 281.30078125 C-115.39320175 281.3807988 -114.37624725 281.46081635 -113.32847595 281.54325867 C-112.38484695 281.62090958 -111.44121796 281.69856049 -110.46899414 281.77856445 C-109.64001114 281.8455806 -108.81102814 281.91259674 -107.95692444 281.98164368 C-105.79074455 282.23779147 -103.79781154 282.71314143 -101.6875 283.25 C-99.01711171 283.48014017 -96.3582653 283.67081019 -93.68359375 283.828125 C-92.00054136 283.93526598 -90.31751866 284.04287411 -88.63452148 284.15087891 C-87.73901581 284.2073761 -86.84351013 284.26387329 -85.92086792 284.32208252 C-65.64076526 285.61262444 -45.43855281 287.44457357 -25.22631836 289.53613281 C-15.43777873 290.54123683 -5.69194564 291.41959837 4.13813782 291.87573242 C9.81267962 292.16227991 15.36254236 292.88232637 20.97851562 293.75488281 C26.65053425 294.59721247 32.35483695 295.08914045 38.0625 295.625 C48.55376683 296.64810214 59.03574374 297.73309674 69.50720215 298.94342041 C71.52033081 299.17543671 73.53407713 299.40207514 75.54785156 299.62841797 C76.84819336 299.78068848 78.14853516 299.93295898 79.48828125 300.08984375 C80.16449524 300.16892471 80.84070923 300.24800568 81.53741455 300.32948303 C85.64546551 300.83716527 89.69751777 301.49147868 93.76367188 302.26782227 C109.88066816 305.2762572 125.52444626 305.64878557 141.84094238 305.37982178 C149.21897854 305.25941877 156.59767372 305.22506609 163.9765625 305.19921875 C165.0553492 305.19487194 165.0553492 305.19487194 166.15592957 305.19043732 C178.00239761 305.15180124 189.76374304 305.50798065 201.5625 306.625 C202.25325623 306.68857697 202.94401245 306.75215393 203.65570068 306.81765747 C221.06235332 308.47471301 221.06235332 308.47471301 228.5625 315.3125 C229.70634133 316.31719227 230.85088262 317.32108815 231.99609375 318.32421875 C232.83889893 319.07131104 232.83889893 319.07131104 233.69873047 319.83349609 C235.96234346 321.82040723 238.28808607 323.72515595 240.625 325.625 C241.50414062 326.34042969 242.38328125 327.05585938 243.2890625 327.79296875 C244.28679688 328.60378906 245.28453125 329.41460937 246.3125 330.25 C247.63299434 331.32920463 248.95329353 332.40864807 250.2734375 333.48828125 C251.6822102 334.63812065 253.09106416 335.78786051 254.5 336.9375 C255.15331299 337.4722998 255.80662598 338.00709961 256.47973633 338.55810547 C258.41469995 340.13405644 260.36067206 341.69499644 262.3125 343.25 C262.95654785 343.76981445 263.6005957 344.28962891 264.26416016 344.82519531 C268.99774607 348.53198062 273.83068647 351.18336035 279.3125 353.625 C280.08722656 353.97949219 280.86195313 354.33398438 281.66015625 354.69921875 C283.54036582 355.55807991 285.42588171 356.40530954 287.3125 357.25 C287.20808594 358.79494141 287.20808594 358.79494141 287.1015625 360.37109375 C286.41742083 375.21116428 290.99370598 386.89744034 297.33203125 400.1484375 C298.88864736 403.48492941 299.44989824 406.16920046 299.52124023 409.80981445 C299.54053085 410.73119705 299.55982147 411.65257965 299.57969666 412.60188293 C299.6375491 416.81031223 299.6866996 421.018574 299.7175293 425.22729492 C299.73912568 427.44555208 299.77324761 429.66372366 299.82006836 431.8815918 C299.88704276 435.08420764 299.91452296 438.28506406 299.93359375 441.48828125 C299.96142441 442.47597 299.98925507 443.46365875 300.01792908 444.48127747 C299.99763082 451.29128705 299.99763082 451.29128705 297.96069336 454.14160156 C296.47491625 455.57984265 294.89745573 456.92184852 293.3125 458.25 C292.46336638 461.34079284 292.46336638 461.34079284 292.4375 464.625 C291.30379048 475.22125528 286.735633 485.51480117 279 493 C272.21255564 498.27134854 264.33684601 501.05162931 255.71875 500.62890625 C246.85872924 499.23374064 239.85433869 493.85665587 234.48046875 486.8671875 C230.3125 480.79581382 230.3125 480.79581382 230.3125 478.25 C229.47779175 478.4833606 229.47779175 478.4833606 228.6262207 478.72143555 C225.96025868 479.46417622 223.29263545 480.20079311 220.625 480.9375 C219.31499023 481.30391602 219.31499023 481.30391602 217.97851562 481.67773438 C210.73398685 483.67187296 203.44292622 485.42371684 196.13088989 487.14797974 C183.7244674 490.08330432 171.36550146 493.210259 159 496.3125 C156.53323125 496.93045083 154.06643449 497.54828986 151.59960938 498.16601562 C139.04784371 501.308462 139.04784371 501.308462 126.4987793 504.46166992 C118.26693883 506.53245538 110.02065104 508.52736164 101.75 510.4375 C100.64076172 510.69724609 99.53152344 510.95699219 98.38867188 511.22460938 C93.04170755 512.4614744 87.76384628 513.60084399 82.3125 514.25 C82.37050781 515.26578125 82.42851563 516.2815625 82.48828125 517.328125 C82.98476703 529.77670876 80.49959035 539.47549158 72.328125 549.28125 C65.26858541 556.17661425 55.52813747 560.58380812 45.66552734 560.66748047 C44.90965332 560.65346191 44.1537793 560.63944336 43.375 560.625 C42.18704834 560.60977295 42.18704834 560.60977295 40.97509766 560.59423828 C30.01238352 560.30283294 23.01472299 556.78543036 15.17578125 549.17578125 C10.57598247 544.30390565 7.57751817 539.55330715 5.3125 533.25 C4.22731889 534.16447846 3.14445262 535.08170407 2.0625 536 C1.15757812 536.76570312 1.15757812 536.76570312 0.234375 537.546875 C-1.75475264 539.19745854 -1.75475264 539.19745854 -3.26408386 541.33125305 C-6.76959874 544.1067549 -10.1068302 543.75239676 -14.3840332 543.65307617 C-15.26094818 543.64895721 -16.13786316 543.64483826 -17.04135132 543.64059448 C-18.9440647 543.62984023 -20.8467441 543.61030443 -22.74929237 543.58302879 C-25.76368877 543.54262822 -28.77689769 543.53121262 -31.79154968 543.52839661 C-40.36140676 543.51662953 -48.93047602 543.46413559 -57.49975586 543.36352539 C-62.74370277 543.30400086 -67.98630113 543.28828973 -73.23055077 543.2996769 C-75.22608412 543.29522625 -77.22165475 543.2739935 -79.21682167 543.23549461 C-89.85908798 542.57840544 -89.85908798 542.57840544 -99.40301514 546.23576355 C-101.15944514 548.50347608 -102.39552123 550.70162773 -103.6875 553.25 C-106.6015625 555.58984375 -106.6015625 555.58984375 -109.3125 557.1875 C-110.66214844 558.00541016 -110.66214844 558.00541016 -112.0390625 558.83984375 C-121.56028858 563.90940513 -132.63540692 564.88723565 -143.13671875 562.44921875 C-152.45889214 559.23886081 -160.19323304 553.52639578 -165.6875 545.25 C-165.6875 544.59 -165.6875 543.93 -165.6875 543.25 C-166.821875 543.3428125 -167.95625 543.435625 -169.125 543.53125 C-181.09346041 544.21451761 -181.09346041 544.21451761 -185.45703125 541.57421875 C-187.38296744 539.55990308 -189.01024808 537.47076646 -190.6875 535.25 C-191.42484375 534.80914063 -192.1621875 534.36828125 -192.921875 533.9140625 C-193.50453125 533.36492188 -194.0871875 532.81578125 -194.6875 532.25 C-194.68296915 528.6751564 -194.10708055 525.32219761 -193.55859375 521.79296875 C-193.3152539 517.641649 -194.59443288 514.55187722 -196.11328125 510.71484375 C-199.08124646 502.9200983 -199.50282879 495.90542444 -199.4375 487.625 C-199.47359375 486.31015625 -199.5096875 484.9953125 -199.546875 483.640625 C-199.546875 475.13055569 -197.99571136 469.97936466 -193.28613281 462.91259766 C-191.08625265 459.24859444 -190.76869569 456.47217582 -190.6875 452.25 C-193.98090163 453.32810498 -197.27186893 454.41347087 -200.5625 455.5 C-201.93921875 455.95052734 -201.93921875 455.95052734 -203.34375 456.41015625 C-208.65972483 458.16966905 -213.87619091 460.07180266 -219.06054688 462.18701172 C-221.95072874 463.35651468 -224.85765105 464.47549308 -227.76953125 465.58984375 C-268.99179357 481.45235453 -308.25131649 500.95440156 -346.49560547 522.98828125 C-349.55537106 524.74957203 -352.62116891 526.50016907 -355.6875 528.25 C-359.2581006 520.09307981 -362.20385152 511.90396404 -364.75 503.375 C-365.09579102 502.22950684 -365.44158203 501.08401367 -365.79785156 499.90380859 C-366.47198354 497.66465919 -367.14318891 495.42462596 -367.81103516 493.18359375 C-368.5120595 490.83721255 -369.22522394 488.4955931 -369.94921875 486.15625 C-372.67790147 477.09659196 -374.47643722 467.89159 -376.23046875 458.60449219 C-376.62408046 456.57671904 -377.05820297 454.55688546 -377.5 452.5390625 C-382.23570716 430.19244436 -382.97338574 407.32255365 -383 384.5625 C-383.00349457 383.60720398 -383.00698914 382.65190796 -383.0105896 381.66766357 C-383.0381981 368.08282214 -382.19541054 354.74726834 -380.6875 341.25 C-380.57253174 340.14422607 -380.45756348 339.03845215 -380.33911133 337.89916992 C-379.10987719 326.34519057 -377.1634797 314.98934794 -374.75 303.625 C-374.50926758 302.48796631 -374.26853516 301.35093262 -374.02050781 300.17944336 C-372.52732849 293.3902366 -370.69206988 286.787878 -368.58911133 280.16308594 C-367.86397302 277.82018036 -367.22468882 275.50265096 -366.6640625 273.1171875 C-362.74629828 257.60284119 -356.49066389 242.69255001 -349.6875 228.25 C-349.24921875 227.30398926 -348.8109375 226.35797852 -348.359375 225.38330078 C-339.47603815 206.2225045 -329.84910894 187.56293501 -317.6875 170.25 C-316.74057559 168.87912021 -315.79398668 167.50800864 -314.84765625 166.13671875 C-309.11577257 157.87732556 -303.16560223 149.94498331 -296.6875 142.25 C-296.01847656 141.40824219 -295.34945312 140.56648437 -294.66015625 139.69921875 C-281.93542956 123.70445056 -267.29335223 108.45064919 -251.6875 95.25 C-250.72070312 94.3940625 -249.75390625 93.538125 -248.7578125 92.65625 C-222.52143967 69.52824933 -192.7852061 51.97289637 -161.6875 36.25 C-160.62039795 35.70835205 -160.62039795 35.70835205 -159.53173828 35.15576172 C-150.40305379 30.56722074 -141.05489232 27.14297264 -131.39453125 23.87109375 C-127.62775643 22.59160034 -123.93679522 21.18421453 -120.25 19.6875 C-92.30559553 8.86346485 -62.32412144 4.41301354 -32.6875 1.25 C-31.82552002 1.1454248 -30.96354004 1.04084961 -30.07543945 0.93310547 C-20.09976707 -0.17102301 -10.02336868 0.00778754 0 0 Z " fill="#0FA3FE" transform="translate(497.6875,114.75)"/>
<path d="M0 0 C16.74483019 -0.35768229 33.29891978 -0.00392008 49.99316406 1.42181396 C50.74499969 1.48493774 51.49683533 1.54806152 52.27145386 1.61309814 C54.41151667 1.7971528 56.55004256 1.99321851 58.68847656 2.19525146 C59.90809082 2.31046143 61.12770508 2.42567139 62.38427734 2.54437256 C69.35196565 3.54924309 73.93958035 5.38806598 79.11816406 10.10931396 C80.26200539 11.11400623 81.40654668 12.11790212 82.55175781 13.12103271 C83.11362793 13.61909424 83.67549805 14.11715576 84.25439453 14.63031006 C86.51800753 16.61722119 88.84375013 18.52196991 91.18066406 20.42181396 C92.499375 21.4949585 92.499375 21.4949585 93.84472656 22.58978271 C95.34132813 23.80601318 95.34132813 23.80601318 96.86816406 25.04681396 C98.1886584 26.12601859 99.50895759 27.20546203 100.82910156 28.28509521 C102.23787426 29.43493462 103.64672822 30.58467447 105.05566406 31.73431396 C105.70897705 32.26911377 106.36229004 32.80391357 107.03540039 33.35491943 C108.97036401 34.93087041 110.91633612 36.49181041 112.86816406 38.04681396 C113.51221191 38.56662842 114.15625977 39.08644287 114.81982422 39.62200928 C119.55341013 43.32879459 124.38635053 45.98017432 129.86816406 48.42181396 C130.64289063 48.77630615 131.41761719 49.13079834 132.21582031 49.49603271 C134.09602989 50.35489388 135.98154577 51.2021235 137.86816406 52.04681396 C137.79855469 53.0767749 137.72894531 54.10673584 137.65722656 55.16790771 C136.97308489 70.00797825 141.54937004 81.6942543 147.88769531 94.94525146 C149.44431143 98.28174337 150.0055623 100.96601443 150.0769043 104.60662842 C150.09619492 105.52801102 150.11548553 106.44939362 150.13536072 107.3986969 C150.19321316 111.6071262 150.24236366 115.81538796 150.27319336 120.02410889 C150.29478974 122.24236605 150.32891167 124.46053763 150.37573242 126.67840576 C150.44270682 129.88102161 150.47018703 133.08187803 150.48925781 136.28509521 C150.51708847 137.27278397 150.54491913 138.26047272 150.57359314 139.27809143 C150.55329488 146.08810101 150.55329488 146.08810101 148.51635742 148.93841553 C147.03058031 150.37665661 145.4531198 151.71866249 143.86816406 153.04681396 C143.01903045 156.13760681 143.01903045 156.13760681 142.99316406 159.42181396 C141.85945455 170.01806924 137.29129706 180.31161513 129.55566406 187.79681396 C122.7682197 193.06816251 114.89251007 195.84844328 106.27441406 195.42572021 C97.41439331 194.03055461 90.41000275 188.65346983 85.03613281 181.66400146 C80.86816406 175.59262778 80.86816406 175.59262778 80.86816406 173.04681396 C80.03345581 173.28017456 80.03345581 173.28017456 79.18188477 173.51824951 C76.51592274 174.26099018 73.84829951 174.99760708 71.18066406 175.73431396 C70.30732422 175.97859131 69.43398438 176.22286865 68.53417969 176.47454834 C61.28965091 178.46868692 53.99859028 180.22053081 46.68655396 181.9447937 C34.28013146 184.88011829 21.92116552 188.00707297 9.55566406 191.10931396 C7.08889531 191.72726479 4.62209856 192.34510383 2.15527344 192.96282959 C-10.39649223 196.10527597 -10.39649223 196.10527597 -22.94555664 199.25848389 C-31.1773971 201.32926934 -39.4236849 203.3241756 -47.69433594 205.23431396 C-48.80357422 205.49406006 -49.9128125 205.75380615 -51.05566406 206.02142334 C-56.40262839 207.25828837 -61.68048966 208.39765795 -67.13183594 209.04681396 C-67.07382812 210.06259521 -67.01582031 211.07837646 -66.95605469 212.12493896 C-66.45956891 224.57352272 -68.94474559 234.27230554 -77.11621094 244.07806396 C-84.17575052 250.97342821 -93.91619847 255.38062208 -103.77880859 255.46429443 C-104.53468262 255.45027588 -105.29055664 255.43625732 -106.06933594 255.42181396 C-106.86130371 255.4116626 -107.65327148 255.40151123 -108.46923828 255.39105225 C-119.43195242 255.0996469 -126.42961295 251.58224432 -134.26855469 243.97259521 C-138.86835346 239.10071962 -141.86681777 234.35012111 -144.13183594 228.04681396 C-145.21701704 228.96129243 -146.29988331 229.87851804 -147.38183594 230.79681396 C-147.98511719 231.30728271 -148.58839844 231.81775146 -149.20996094 232.34368896 C-151.19908858 233.99427251 -151.19908858 233.99427251 -152.7084198 236.12806702 C-156.21393467 238.90356886 -159.55116614 238.54921072 -163.82836914 238.44989014 C-164.70528412 238.44577118 -165.5821991 238.44165222 -166.48568726 238.43740845 C-168.38840064 238.42665419 -170.29108004 238.4071184 -172.19362831 238.37984276 C-175.20802471 238.33944219 -178.22123363 238.32802658 -181.23588562 238.32521057 C-189.8057427 238.31344349 -198.37481196 238.26094955 -206.9440918 238.16033936 C-212.1880387 238.10081483 -217.43063707 238.08510369 -222.6748867 238.09649086 C-224.67042006 238.09204022 -226.66599069 238.07080747 -228.66115761 238.03230858 C-239.30342391 237.3752194 -239.30342391 237.3752194 -248.84735107 241.03257751 C-250.60378107 243.30029004 -251.83985717 245.49844169 -253.13183594 248.04681396 C-256.04589844 250.38665771 -256.04589844 250.38665771 -258.75683594 251.98431396 C-259.65660156 252.5295874 -260.55636719 253.07486084 -261.48339844 253.63665771 C-271.00462451 258.70621909 -282.07974285 259.68404962 -292.58105469 257.24603271 C-301.90322808 254.03567478 -309.63756897 248.32320974 -315.13183594 240.04681396 C-315.13183594 239.38681396 -315.13183594 238.72681396 -315.13183594 238.04681396 C-316.26621094 238.13962646 -317.40058594 238.23243896 -318.56933594 238.32806396 C-330.53779634 239.01133157 -330.53779634 239.01133157 -334.90136719 236.37103271 C-336.82730338 234.35671704 -338.45458402 232.26758043 -340.13183594 230.04681396 C-341.23785156 229.3855249 -341.23785156 229.3855249 -342.36621094 228.71087646 C-343.24019531 227.88716553 -343.24019531 227.88716553 -344.13183594 227.04681396 C-344.12730508 223.47197037 -343.55141649 220.11901158 -343.00292969 216.58978271 C-342.75958983 212.43846297 -344.03876881 209.34869118 -345.55761719 205.51165771 C-348.5255824 197.71691227 -348.94716473 190.7022384 -348.88183594 182.42181396 C-348.91792969 181.10697021 -348.95402344 179.79212646 -348.99121094 178.43743896 C-348.99121094 170.03508302 -347.55160887 164.60321744 -342.83203125 157.61956787 C-341.19992934 155.14985363 -340.12774309 152.82470592 -339.13183594 150.04681396 C-338.80183594 150.04681396 -338.47183594 150.04681396 -338.13183594 150.04681396 C-338.02226562 151.17861084 -337.91269531 152.31040771 -337.79980469 153.47650146 C-337.64036533 154.95834961 -337.48016976 156.44011652 -337.31933594 157.92181396 C-337.24908203 158.66818115 -337.17882812 159.41454834 -337.10644531 160.18353271 C-336.88473371 162.15233173 -336.51604254 164.10318054 -336.13183594 166.04681396 C-335.14183594 166.70681396 -334.15183594 167.36681396 -333.13183594 168.04681396 C-333.13707275 167.42637207 -333.14230957 166.80593018 -333.14770508 166.16668701 C-333.16849059 163.35590629 -333.18150111 160.54514176 -333.19433594 157.73431396 C-333.20271484 156.75784912 -333.21109375 155.78138428 -333.21972656 154.77532959 C-333.22294922 153.83753662 -333.22617187 152.89974365 -333.22949219 151.93353271 C-333.234729 151.06945801 -333.23996582 150.2053833 -333.24536133 149.31512451 C-333.13183594 147.04681396 -333.13183594 147.04681396 -332.13183594 144.04681396 C-334.11183594 145.03681396 -336.09183594 146.02681396 -338.13183594 147.04681396 C-339.13183594 146.04681396 -339.13183594 146.04681396 -339.63183594 143.48431396 C-338.73573654 137.32363059 -334.31440416 133.70894863 -329.51074219 130.05072021 C-327.77900747 128.84177334 -326.03244875 127.65364936 -324.26855469 126.49212646 C-322.04538206 125.08670841 -322.04538206 125.08670841 -320.13183594 123.04681396 C-318.64683594 122.45900146 -318.64683594 122.45900146 -317.13183594 121.85931396 C-314.06701229 120.59988239 -311.65354635 119.03421838 -309.00683594 117.04681396 C-294.96909324 106.95585303 -277.81768642 98.917004 -261.53027344 93.12103271 C-258.27064645 91.66110206 -255.57944617 89.57513345 -252.75683594 87.42181396 C-246.18741752 82.50683548 -239.50208606 77.77970028 -232.75683594 73.10931396 C-230.76719105 71.73049654 -228.77760715 70.3515911 -226.78808594 68.97259521 C-225.82773437 68.30695557 -224.86738281 67.64131592 -223.87792969 66.95550537 C-217.94536952 62.8320385 -212.05178 58.65341795 -206.15576172 54.47796631 C-204.08625974 53.01458626 -202.01377989 51.55551708 -199.94042969 50.09759521 C-198.52505093 49.1015216 -197.10968636 48.10542783 -195.69433594 47.10931396 C-195.00243164 46.6230957 -194.31052734 46.13687744 -193.59765625 45.63592529 C-189.80626087 42.96343894 -186.04344542 40.25747655 -182.30761719 37.50775146 C-181.50573975 36.9198584 -180.7038623 36.33196533 -179.87768555 35.72625732 C-178.34155402 34.59760956 -176.8095289 33.46334272 -175.2824707 32.32244873 C-167.38921801 26.53092291 -159.28723659 24.14900516 -149.88183594 21.79681396 C-147.42455821 21.17800022 -144.96753299 20.55818307 -142.51074219 19.93743896 C-141.26824707 19.62355225 -140.02575195 19.30966553 -138.74560547 18.98626709 C-135.4703564 18.13481739 -132.22106636 17.22573511 -128.97167969 16.28118896 C-109.48537963 10.72326229 -89.62751763 7.94222723 -69.58868408 5.16197205 C-65.35029207 4.56394106 -61.16790922 3.87002597 -56.97802734 2.9911499 C-52.81375618 2.13595327 -48.75524869 1.68095309 -44.50292969 1.45697021 C-43.485308 1.4017495 -43.485308 1.4017495 -42.4471283 1.34541321 C-28.30852194 0.6065334 -14.15294988 0.31079113 0 0 Z " fill="#1F7EFE" transform="translate(647.1318359375,419.95318603515625)"/>
<path d="M0 0 C-1.03679002 6.54759514 -4.19716338 12.21262852 -7.0625 18.125 C-7.37034424 18.7622702 -7.67818848 19.39954041 -7.99536133 20.05612183 C-18.42015342 41.53436188 -30.82527596 61.78577548 -45 81 C-45.45036621 81.61472168 -45.90073242 82.22944336 -46.36474609 82.86279297 C-61.46647654 103.36752257 -79.32593941 123.5650919 -98.74609375 140.08203125 C-100.50602764 141.57965263 -102.24384314 143.10327742 -103.97265625 144.63671875 C-130.03552614 167.63698075 -160.09579403 185.39084722 -191 201 C-191.74846191 201.37962891 -192.49692383 201.75925781 -193.26806641 202.15039062 C-203.07206867 207.07790403 -213.18668025 210.67029141 -223.56591797 214.16796875 C-225.82634924 214.94064175 -228.07284853 215.74230817 -230.31640625 216.5625 C-247.11052028 222.69663977 -264.11794551 227.34665491 -281.70556641 230.56494141 C-283.20651844 230.84954414 -284.70401462 231.15319634 -286.19677734 231.47802734 C-294.47033656 233.26581654 -302.84321065 234.22022357 -311.25 235.125 C-312.07494965 235.21437836 -312.89989929 235.30375671 -313.74984741 235.39584351 C-328.60663683 236.95700299 -343.38025115 237.3603466 -358.3125 237.3125 C-359.33597534 237.30986145 -360.35945068 237.3072229 -361.41394043 237.30450439 C-364.31390424 237.29206346 -367.21345549 237.26880607 -370.11328125 237.23828125 C-370.98541763 237.23072311 -371.85755402 237.22316498 -372.75611877 237.21537781 C-378.7602146 237.1198927 -378.7602146 237.1198927 -381 236 C-381.22855162 226.10879363 -380.96230854 216.74426354 -379 207 C-378.87641113 206.35981934 -378.75282227 205.71963867 -378.62548828 205.06005859 C-374.51053963 184.13616816 -365.93336103 166.24672441 -352 150 C-351.32453125 149.20207031 -350.6490625 148.40414062 -349.953125 147.58203125 C-333.63604129 128.85311583 -313.43933185 114.32162048 -292 102 C-291.30293945 101.59507324 -290.60587891 101.19014648 -289.88769531 100.77294922 C-271.93540753 90.38501536 -253.27580975 80.68622914 -234 73 C-232.42316946 72.36850861 -230.84634736 71.73699616 -229.26953125 71.10546875 C-228.40537598 70.76040283 -227.5412207 70.41533691 -226.65087891 70.05981445 C-224.93616136 69.37427486 -223.22223753 68.68674515 -221.50927734 67.99682617 C-205.19309265 61.43366879 -188.66393925 55.6143738 -172 50 C-170.88786133 49.62423828 -169.77572266 49.24847656 -168.62988281 48.86132812 C-156.46629941 44.75680464 -144.28372313 40.73131416 -132 37 C-131.26458984 36.77634766 -130.52917969 36.55269531 -129.77148438 36.32226562 C-116.85134885 32.40219126 -103.89511819 28.60523502 -90.92675781 24.84814453 C-89.03776888 24.30073483 -87.14907473 23.75230642 -85.26074219 23.20263672 C-74.22277633 19.99155504 -63.15086571 16.97496098 -52.01879883 14.10693359 C-46.20323107 12.60023806 -40.45881218 10.96625632 -34.734375 9.140625 C-28.02335945 7.0908169 -21.25192379 5.24966822 -14.49072266 3.37329102 C-13.43933105 3.08123779 -12.38793945 2.78918457 -11.3046875 2.48828125 C-9.8813208 2.09443237 -9.8813208 2.09443237 -8.42919922 1.69262695 C-2.49277406 0 -2.49277406 0 0 0 Z " fill="#0FA3FE" transform="translate(855,648)"/>
<path d="M0 0 C1.52359634 -0.00200912 1.52359634 -0.00200912 3.07797241 -0.00405884 C25.89044428 0.00244051 48.73623628 1.09477411 71.12841797 5.79785156 C73.68615647 6.32735432 76.25074618 6.8150344 78.81640625 7.3046875 C93.25058559 10.11866872 107.27639374 13.87751014 121.3125 18.25 C122.55 18.63285156 123.7875 19.01570313 125.0625 19.41015625 C131.98204995 21.63558443 138.63221272 24.39696064 145.3125 27.25 C146.16279785 27.59716064 147.0130957 27.94432129 147.88916016 28.30200195 C155.61740903 31.46807457 163.16826525 34.9296654 170.6875 38.5625 C171.28054932 38.8489035 171.87359863 39.13530701 172.48461914 39.4303894 C181.31988885 43.70609043 189.95168863 48.09740694 198.3125 53.25 C199.36147461 53.88856934 199.36147461 53.88856934 200.43164062 54.54003906 C221.67223336 67.50238552 241.69606998 82.14053014 259.953125 99.07421875 C261.9516708 100.91724857 263.98565493 102.68460726 266.0625 104.4375 C275.4664806 112.61487444 284.29544562 121.71763424 292.3125 131.25 C293.60994141 132.71373047 293.60994141 132.71373047 294.93359375 134.20703125 C307.82475276 148.80673451 318.77429948 164.89841853 329.3125 181.25 C329.69825195 181.84748047 330.08400391 182.44496094 330.48144531 183.06054688 C336.00700967 191.71313464 340.76787507 200.77163269 345.5 209.875 C346.37374268 211.55517212 346.37374268 211.55517212 347.26513672 213.26928711 C352.76618905 223.95586031 358.01705811 234.64210815 361.8125 246.0625 C362.40320618 247.8013739 362.99567595 249.53964963 363.58984375 251.27734375 C363.87843262 252.12151855 364.16702148 252.96569336 364.46435547 253.83544922 C365.45673926 256.66062932 366.53534219 259.44436768 367.6328125 262.22998047 C373.65837336 277.61498159 377.31946123 293.67221407 380.6875 309.8125 C381.08195313 311.69521606 381.08195313 311.69521606 381.484375 313.6159668 C381.84402344 315.38580933 381.84402344 315.38580933 382.2109375 317.19140625 C382.42411621 318.24013916 382.63729492 319.28887207 382.85693359 320.36938477 C383.3125 323.25 383.3125 323.25 383.3125 328.25 C380.0125 327.26 376.7125 326.27 373.3125 325.25 C373.1165625 324.09371094 372.920625 322.93742187 372.71875 321.74609375 C363.25938214 268.11740381 343.03192507 215.76475656 311.3125 171.25 C310.78543457 170.5079834 310.25836914 169.7659668 309.71533203 169.00146484 C302.07202613 158.30083658 294.07840883 148.0515033 285.3125 138.25 C284.49910156 137.33734375 283.68570313 136.4246875 282.84765625 135.484375 C281.36881586 133.83616314 279.88476659 132.19260382 278.39453125 130.5546875 C277.00075238 129.01185535 275.6231349 127.45427572 274.26171875 125.8828125 C270.5128144 121.5588335 266.67199819 117.6804742 262.30078125 113.98828125 C260.25951628 112.20367828 258.38587125 110.3223253 256.5 108.375 C251.76409818 103.58402955 246.56990499 99.45060676 241.3125 95.25 C240.18764848 94.32431669 239.06399637 93.39717444 237.94140625 92.46875 C224.2455387 81.21690093 209.58992788 71.23230077 194.3125 62.25 C193.21292969 61.59257812 192.11335937 60.93515625 190.98046875 60.2578125 C164.71337953 44.84305595 136.49573967 32.83844549 107.3125 24.25 C106.43883789 23.98977051 105.56517578 23.72954102 104.66503906 23.46142578 C50.53022941 7.58738435 -11.67865643 4.11680811 -66.98828125 15.6953125 C-69.00188768 16.10910716 -71.02120049 16.49531394 -73.04296875 16.8671875 C-82.14633597 18.57466839 -90.89505706 20.91853562 -99.73730469 23.64892578 C-101.4601349 24.17992328 -103.1868297 24.69834677 -104.9140625 25.21484375 C-108.18125473 26.19837836 -111.43433233 27.22100892 -114.6875 28.25 C-115.41324219 28.47349121 -116.13898438 28.69698242 -116.88671875 28.92724609 C-163.37844007 43.30896331 -207.24406786 69.06749184 -243.6875 101.25 C-244.53183594 101.99507813 -245.37617188 102.74015625 -246.24609375 103.5078125 C-248.74333811 105.73735227 -251.21617387 107.99178369 -253.6875 110.25 C-254.70409811 111.16182524 -255.72104295 112.07326402 -256.73828125 112.984375 C-268.41329306 123.51166182 -278.93115074 134.92167818 -288.6875 147.25 C-289.51378906 148.26964844 -290.34007812 149.28929687 -291.19140625 150.33984375 C-304.59902999 166.98310805 -316.17374256 184.65760221 -326.6875 203.25 C-327.07099609 203.92305176 -327.45449219 204.59610352 -327.84960938 205.28955078 C-337.71069978 222.71296896 -345.7122601 241.09768012 -351.96289062 260.09863281 C-353.00037 263.17891187 -354.16435053 266.20953011 -355.3125 269.25 C-358.22004447 277.31051933 -360.13842152 285.62012299 -362.08081055 293.95507812 C-362.6875 296.25 -362.6875 296.25 -363.66601562 299.06811523 C-365.44776952 304.61821049 -366.29411149 310.37922387 -367.3081665 316.10968018 C-367.66417782 318.11840885 -368.02975346 320.12543576 -368.39599609 322.13232422 C-371.78432097 341.27916509 -373.14720285 360.05106726 -373.0625 379.5 C-373.05817963 380.50715057 -373.05385925 381.51430115 -373.04940796 382.55197144 C-373.00468895 389.4535587 -372.87183519 396.35081804 -372.6875 403.25 C-372.66100372 404.28346558 -372.63450745 405.31693115 -372.60720825 406.38171387 C-372.27490564 418.43739752 -371.68090953 430.14054191 -369.375 442 C-369.15207275 443.21171875 -368.92914551 444.4234375 -368.69946289 445.671875 C-368.04495752 449.20120351 -367.36772808 452.72555544 -366.6875 456.25 C-366.3271225 458.19252262 -365.96767044 460.13521727 -365.609375 462.078125 C-363.86512408 471.35603728 -361.66952599 480.2803487 -358.6875 489.25 C-358.07960952 491.24887131 -357.47557959 493.24891991 -356.875 495.25 C-353.99170549 504.64097127 -350.81953449 513.93972377 -347.6875 523.25 C-351.1525 525.725 -351.1525 525.725 -354.6875 528.25 C-361.25907994 521.67842006 -363.32377487 507.28969819 -366.01074219 498.45410156 C-366.7247133 496.1288017 -367.45929472 493.81059675 -368.1953125 491.4921875 C-371.61229526 480.59867452 -374.21807552 469.73742407 -376.26269531 458.5078125 C-376.63688713 456.51900448 -377.06072779 454.5396746 -377.4921875 452.5625 C-382.24608259 430.21429213 -382.97338071 407.32685086 -383 384.5625 C-383.00349457 383.60720398 -383.00698914 382.65190796 -383.0105896 381.66766357 C-383.0381981 368.08282214 -382.19541054 354.74726834 -380.6875 341.25 C-380.57253174 340.14422607 -380.45756348 339.03845215 -380.33911133 337.89916992 C-379.10987719 326.34519057 -377.1634797 314.98934794 -374.75 303.625 C-374.50926758 302.48796631 -374.26853516 301.35093262 -374.02050781 300.17944336 C-372.52732849 293.3902366 -370.69206988 286.787878 -368.58911133 280.16308594 C-367.86397302 277.82018036 -367.22468882 275.50265096 -366.6640625 273.1171875 C-362.74629828 257.60284119 -356.49066389 242.69255001 -349.6875 228.25 C-349.24921875 227.30398926 -348.8109375 226.35797852 -348.359375 225.38330078 C-339.47603815 206.2225045 -329.84910894 187.56293501 -317.6875 170.25 C-316.74057559 168.87912021 -315.79398668 167.50800864 -314.84765625 166.13671875 C-309.11577257 157.87732556 -303.16560223 149.94498331 -296.6875 142.25 C-296.01847656 141.40824219 -295.34945312 140.56648437 -294.66015625 139.69921875 C-281.93542956 123.70445056 -267.29335223 108.45064919 -251.6875 95.25 C-250.72070312 94.3940625 -249.75390625 93.538125 -248.7578125 92.65625 C-222.52143967 69.52824933 -192.7852061 51.97289637 -161.6875 36.25 C-160.62039795 35.70835205 -160.62039795 35.70835205 -159.53173828 35.15576172 C-150.40305379 30.56722074 -141.05489232 27.14297264 -131.39453125 23.87109375 C-127.62775643 22.59160034 -123.93679522 21.18421453 -120.25 19.6875 C-92.30559553 8.86346485 -62.32412144 4.41301354 -32.6875 1.25 C-31.82552002 1.1454248 -30.96354004 1.04084961 -30.07543945 0.93310547 C-20.09976707 -0.17102301 -10.02336868 0.00778754 0 0 Z " fill="#2080FE" transform="translate(497.6875,114.75)"/>
<path d="M0 0 C-1.03679002 6.54759514 -4.19716338 12.21262852 -7.0625 18.125 C-7.37034424 18.7622702 -7.67818848 19.39954041 -7.99536133 20.05612183 C-18.42015342 41.53436188 -30.82527596 61.78577548 -45 81 C-45.45036621 81.61472168 -45.90073242 82.22944336 -46.36474609 82.86279297 C-61.46647654 103.36752257 -79.32593941 123.5650919 -98.74609375 140.08203125 C-100.50602764 141.57965263 -102.24384314 143.10327742 -103.97265625 144.63671875 C-130.03552614 167.63698075 -160.09579403 185.39084722 -191 201 C-191.74846191 201.37962891 -192.49692383 201.75925781 -193.26806641 202.15039062 C-203.07206867 207.07790403 -213.18668025 210.67029141 -223.56591797 214.16796875 C-225.82634924 214.94064175 -228.07284853 215.74230817 -230.31640625 216.5625 C-247.11052028 222.69663977 -264.11794551 227.34665491 -281.70556641 230.56494141 C-283.20651844 230.84954414 -284.70401462 231.15319634 -286.19677734 231.47802734 C-294.47033656 233.26581654 -302.84321065 234.22022357 -311.25 235.125 C-312.07494965 235.21437836 -312.89989929 235.30375671 -313.74984741 235.39584351 C-328.60663683 236.95700299 -343.38025115 237.3603466 -358.3125 237.3125 C-359.33597534 237.30986145 -360.35945068 237.3072229 -361.41394043 237.30450439 C-364.31390424 237.29206346 -367.21345549 237.26880607 -370.11328125 237.23828125 C-370.98541763 237.23072311 -371.85755402 237.22316498 -372.75611877 237.21537781 C-378.7602146 237.1198927 -378.7602146 237.1198927 -381 236 C-381 233.03 -381 230.06 -381 227 C-379.7217334 227.00523682 -378.4434668 227.01047363 -377.12646484 227.01586914 C-372.26937595 227.03431407 -367.41228996 227.04557232 -362.55517578 227.05493164 C-360.47444128 227.05988349 -358.3937101 227.06664674 -356.31298828 227.07543945 C-328.68877165 227.51762416 -328.68877165 227.51762416 -301.375 224.0625 C-299.53398222 223.69857035 -297.69283754 223.33528205 -295.8515625 222.97265625 C-295.00754883 222.80137207 -294.16353516 222.63008789 -293.29394531 222.45361328 C-290.45670403 221.89256663 -287.60873043 221.43707862 -284.75 221 C-269.83182975 218.52784607 -255.39566878 214.57849144 -241 210 C-239.81543213 209.62439941 -239.81543213 209.62439941 -238.60693359 209.24121094 C-236.29727944 208.503545 -233.99160406 207.75481003 -231.6875 207 C-231.03201172 206.78746582 -230.37652344 206.57493164 -229.70117188 206.35595703 C-216.61527333 201.98654359 -204.12753001 196.35861202 -191.75 190.3125 C-191.03177063 189.96306335 -190.31354126 189.61362671 -189.57354736 189.25360107 C-178.08741035 183.65440803 -166.8228454 177.81348538 -156 171 C-155.36610352 170.60184082 -154.73220703 170.20368164 -154.07910156 169.79345703 C-134.68594595 157.48297541 -116.73340656 143.31004652 -99.91796875 127.6953125 C-97.03668918 125.03388961 -94.1141955 122.4237672 -91.1875 119.8125 C-87.47934959 116.44289685 -84.07976495 113.00567255 -80.859375 109.171875 C-79.01541102 107.01800111 -77.09682691 104.94755151 -75.15698242 102.88012695 C-68.6499607 95.91920574 -62.75324021 88.59012926 -57 81 C-56.17363037 79.918396 -56.17363037 79.918396 -55.33056641 78.81494141 C-46.80276799 67.61997343 -39.04273833 56.1834819 -32 44 C-31.5776709 43.27490234 -31.1553418 42.54980469 -30.72021484 41.80273438 C-25.06295402 32.03999307 -19.99061412 22.083765 -15.31030273 11.81518555 C-14.92044189 10.96996338 -14.53058105 10.12474121 -14.12890625 9.25390625 C-13.61952515 8.12964233 -13.61952515 8.12964233 -13.09985352 6.98266602 C-11.2286789 3.60956744 -9.59639535 2.23607316 -6 0.8125 C-3 0 -3 0 0 0 Z " fill="#207FFE" transform="translate(855,648)"/>
<path d="M0 0 C0.58373356 9.92347051 -2.05891792 18.96835356 -6 28 C-8.10522744 34.76605434 -9.34109997 41.61314761 -10.25 48.625 C-10.34224854 49.32423584 -10.43449707 50.02347168 -10.52954102 50.74389648 C-11.07198477 54.48104923 -11.07198477 54.48104923 -10 58 C-27.49723777 60.2273451 -44.86923513 61.57209733 -62.4987793 62.08081055 C-66.1969001 62.18777188 -69.894252 62.31036767 -73.59179688 62.43554688 C-88.73135527 62.92753829 -103.8530086 63.11186261 -119 63 C-116.12721012 60.03629311 -113.34625053 57.35619714 -109.91796875 55.0546875 C-109.15911377 54.54083496 -108.40025879 54.02698242 -107.6184082 53.49755859 C-106.41510864 52.69439209 -106.41510864 52.69439209 -105.1875 51.875 C-103.47641723 50.71896498 -101.76548201 49.56271156 -100.0546875 48.40625 C-99.20229492 47.83261719 -98.34990234 47.25898438 -97.47167969 46.66796875 C-93.90292587 44.25965918 -90.35692439 41.81891098 -86.8125 39.375 C-85.50659061 38.47644594 -84.20060128 37.57800804 -82.89453125 36.6796875 C-82.25338379 36.23850586 -81.61223633 35.79732422 -80.95166016 35.34277344 C-78.30361523 33.52087613 -75.65490878 31.69994203 -73.00610352 29.87915039 C-71.67182343 28.96186328 -70.33767564 28.0443837 -69.00366211 27.12670898 C-65.64834364 24.81882449 -62.29101047 22.51397578 -58.9296875 20.21484375 C-58.25993896 19.7552124 -57.59019043 19.29558105 -56.90014648 18.82202148 C-55.55204192 17.90036977 -54.1999777 16.98448287 -52.84399414 16.07446289 C-49.641436 13.90808388 -46.59712452 11.71026497 -43.69140625 9.15625 C-31.14905683 -1.54119196 -15.72249269 -0.11566956 0 0 Z " fill="#0FA2FF" transform="translate(515,448)"/>
<path d="M0 0 C2.53086291 7.74067113 4.63137532 15.46093958 6.42211914 23.39794922 C7.79773924 29.38831443 9.48282487 35.25711989 11.33764648 41.11621094 C11.53946533 41.77008789 11.74128418 42.42396484 11.94921875 43.09765625 C12.12799561 43.65976807 12.30677246 44.22187988 12.4909668 44.80102539 C13.27060544 48.16898953 13.60299825 51.56668243 14 55 C13.08710205 55.35304199 12.1742041 55.70608398 11.23364258 56.06982422 C7.83232654 57.38529101 4.43115644 58.70113476 1.0300293 60.01708984 C-0.43933222 60.5855514 -1.90873278 61.15391204 -3.37817383 61.72216797 C-5.49570943 62.5410727 -7.61310227 63.3603456 -9.73046875 64.1796875 C-10.38274948 64.43185028 -11.03503021 64.68401306 -11.70707703 64.94381714 C-15.14655127 66.2751995 -18.57878043 67.62236605 -22 69 C-21.95359375 68.32453125 -21.9071875 67.6490625 -21.859375 66.953125 C-21.52743051 61.39114582 -21.52743051 61.39114582 -23.6875 56.4375 C-28.70164002 53.32060215 -34.70008393 53.72216948 -40.4375 53.625 C-41.27087891 53.58761719 -42.10425781 53.55023438 -42.96289062 53.51171875 C-47.20852226 53.4513066 -50.05651187 53.57557445 -53.41015625 56.3359375 C-54.26480469 57.21507812 -55.11945312 58.09421875 -56 59 C-56.99860535 60.0013927 -57.99826524 61.00173777 -59 62 C-59.50893577 59.02211984 -60.00730636 56.0430746 -60.5 53.0625 C-60.64308594 52.23169922 -60.78617188 51.40089844 -60.93359375 50.54492188 C-61.84729077 44.95396627 -62.13719631 39.66506422 -62 34 C-61.34 34 -60.68 34 -60 34 C-59.73832031 33.41089844 -59.47664062 32.82179688 -59.20703125 32.21484375 C-57.9357725 29.88214566 -56.59769469 28.39645632 -54.6875 26.5625 C-54.06101562 25.9540625 -53.43453125 25.345625 -52.7890625 24.71875 C-52.19867187 24.1515625 -51.60828125 23.584375 -51 23 C-50.195625 22.195625 -49.39125 21.39125 -48.5625 20.5625 C-47.716875 19.716875 -46.87125 18.87125 -46 18 C-45.48566406 17.38125 -44.97132813 16.7625 -44.44140625 16.125 C-38.93174502 9.86886854 -32.54585675 7.29366725 -24.86328125 4.64941406 C-23.14549413 4.05070943 -21.44650839 3.39876887 -19.75 2.7421875 C-13.0037984 0.22993013 -7.17876291 -0.50873123 0 0 Z " fill="#0FA2FE" transform="translate(648,433)"/>
<path d="M0 0 C-0.15875159 8.73133725 -4.27279688 13.29178094 -10.30078125 19.2890625 C-12.80386074 21.61249513 -15.37235432 23.81877996 -18 26 C-18.75152344 26.64582031 -19.50304687 27.29164063 -20.27734375 27.95703125 C-38.61340078 42.54860986 -65.63510032 53.23928559 -89.00390625 53.3984375 C-92.24725201 52.96711903 -93.62739115 52.19277786 -96 50 C-95.20524296 45.26367765 -92.39333054 42.47306475 -89.3671875 38.88671875 C-86.96689248 36.05526557 -86.96689248 36.05526557 -85.0078125 33.01953125 C-74.56447041 18.4747382 -55.16617903 9.77747645 -39 3 C-38.11570312 2.60554687 -37.23140625 2.21109375 -36.3203125 1.8046875 C-25.80097502 -2.6501209 -10.04497262 -7.02406757 0 0 Z " fill="#EFF0F1" transform="translate(512,537)"/>
<path d="M0 0 C9.84633867 -0.45578203 19.57944662 0.63784942 29.3347168 1.84936523 C31.23929443 2.07511106 33.14682 2.2772194 35.05639648 2.45581055 C51.80826198 4.0369339 51.80826198 4.0369339 56.01025391 8.9765625 C58.15995147 12.11874297 59.63588876 15.44661509 61 19 C61.36762451 19.82862549 61.73524902 20.65725098 62.11401367 21.51098633 C63.34432796 24.44658606 64 26.80387615 64 30 C64.66 30 65.32 30 66 30 C66 32.97 66 35.94 66 39 C60.20375704 41.29434617 54.31044578 43.18880262 48.35302734 45.01342773 C44.87299941 46.08411285 41.41452689 47.18760903 37.98046875 48.3984375 C30.98379631 50.85893105 24.46157265 52.80687694 17 53 C16.76216797 51.56333984 16.76216797 51.56333984 16.51953125 50.09765625 C13.58086218 33.01908395 8.57803549 18.07120576 0.74682617 2.58789062 C0 1 0 1 0 0 Z " fill="#10A2FE" transform="translate(660,432)"/>
<path d="M0 0 C1.7578112 0.00503252 3.51562383 0.00959229 5.2734375 0.01367188 C9.51566106 0.02452149 13.75781411 0.04168614 18 0.0625 C16.51097781 3.72876502 14.47442355 5.49279319 11.41796875 7.94921875 C7.38052442 11.48678212 4.37553284 15.13246397 1.61328125 19.70703125 C1.2575705 20.28911346 0.90185974 20.87119568 0.53536987 21.47091675 C-0.9166989 23.8701385 -2.3500541 26.2764079 -3.72729492 28.71948242 C-7.30927158 35.00825088 -10.45238251 40.15422664 -17.72602844 42.2832489 C-20.79467435 42.99780939 -23.89883321 43.50922193 -27 44.0625 C-29.68085378 45.01778042 -32.24928887 46.08455527 -34.8515625 47.23046875 C-37.22894056 48.15116243 -39.47669848 48.70510405 -42 49.0625 C-42.33 48.7325 -42.66 48.4025 -43 48.0625 C-42.85415738 39.6025556 -41.17282545 31.12319619 -39.84326172 22.78051758 C-39.49680947 20.60496505 -39.15621794 18.42855181 -38.81640625 16.25195312 C-36.99909934 4.71160769 -36.99909934 4.71160769 -36 1.0625 C-23.98039444 0.13186189 -12.05034312 -0.06096489 0 0 Z " fill="#0FA2FF" transform="translate(570,442.9375)"/>
<path d="M0 0 C4.22969299 0.4535547 8.45863978 0.91375043 12.6875 1.375 C13.86634766 1.50132812 15.04519531 1.62765625 16.25976562 1.7578125 C18.64543205 2.0192554 21.02983692 2.29246536 23.4128418 2.57714844 C25.81976418 2.86087467 28.23050542 3.11377538 30.64379883 3.33691406 C39.29207404 4.30490952 39.29207404 4.30490952 42.80078125 7.75 C43.29964844 8.8225 43.79851563 9.895 44.3125 11 C44.84488281 12.0725 45.37726562 13.145 45.92578125 14.25 C47 17 47 17 47 19 C41.70659157 17.34420125 36.65857761 15.23401079 31.5625 13.0625 C30.74201172 12.71509766 29.92152344 12.36769531 29.07617188 12.00976562 C25.49216603 10.49092516 21.91739279 8.96308851 18.36328125 7.375 C13.65748482 5.45114362 8.82466833 4.25193938 3.9140625 2.96484375 C2.47160156 2.48724609 2.47160156 2.48724609 1 2 C0.67 1.34 0.34 0.68 0 0 Z " fill="#E5ECF1" transform="translate(673,433)"/>
<path d="M0 0 C-0.33 7.92 -0.66 15.84 -1 24 C-2.32 23.34 -3.64 22.68 -5 22 C-5.08685287 18.70849875 -5.14033895 15.4172904 -5.1875 12.125 C-5.21263672 11.18785156 -5.23777344 10.25070312 -5.26367188 9.28515625 C-5.27333984 8.38925781 -5.28300781 7.49335937 -5.29296875 6.5703125 C-5.3086792 5.74289551 -5.32438965 4.91547852 -5.34057617 4.06298828 C-5.22818604 3.38220215 -5.1157959 2.70141602 -5 2 C-2 0 -2 0 0 0 Z " fill="#F5F4F0" transform="translate(315,564)"/>
<path d="M0 0 C1.32 0.33 2.64 0.66 4 1 C2.21076233 9.92914798 2.21076233 9.92914798 -0.7578125 12.5546875 C-2.6875 13.625 -2.6875 13.625 -6 15 C-7 14 -7 14 -7.5 11.4375 C-6.75391984 6.3081989 -3.56665995 3.5848572 0 0 Z " fill="#1F81FE" transform="translate(315,552)"/>
<path d="M0 0 C-0.33 7.59 -0.66 15.18 -1 23 C-1.33 23 -1.66 23 -2 23 C-2.33 17.39 -2.66 11.78 -3 6 C-3.66 5.67 -4.32 5.34 -5 5 C-4.625 3.0625 -4.625 3.0625 -4 1 C-2 0 -2 0 0 0 Z " fill="#E1E9F1" transform="translate(315,564)"/>
<path d="M0 0 C1 2 1 2 0.58203125 3.91015625 C0.32808594 4.62042969 0.07414062 5.33070313 -0.1875 6.0625 C-0.54908203 7.13177734 -0.54908203 7.13177734 -0.91796875 8.22265625 C-2 10 -2 10 -4.11328125 10.74609375 C-4.73589844 10.82988281 -5.35851562 10.91367187 -6 11 C-5.55530671 5.96014269 -3.28656638 3.62365012 0 0 Z " fill="#12A0FE" transform="translate(317,554)"/>
<path d="M0 0 C2.97 0 5.94 0 9 0 C8.34 1.32 7.68 2.64 7 4 C2.25 3.125 2.25 3.125 0 2 C0 1.34 0 0.68 0 0 Z " fill="#22A8FD" transform="translate(256,352)"/>
<path d="M0 0 C0.66 0.33 1.32 0.66 2 1 C2 5.29 2 9.58 2 14 C1.67 14 1.34 14 1 14 C0.855625 12.7625 0.71125 11.525 0.5625 10.25 C0.28388159 7.96452146 -0.03818221 5.85490762 -0.625 3.625 C-1 2 -1 2 0 0 Z " fill="#569CFA" transform="translate(308,566)"/>
<path d="M0 0 C-3.44175522 2.14699969 -5.7720292 2.09856795 -9.75 1.625 C-10.73484375 1.51414062 -11.7196875 1.40328125 -12.734375 1.2890625 C-13.48203125 1.19367187 -14.2296875 1.09828125 -15 1 C-15 0.67 -15 0.34 -15 0 C-13.25093341 -0.19601608 -11.50068154 -0.38147403 -9.75 -0.5625 C-8.77546875 -0.66691406 -7.8009375 -0.77132812 -6.796875 -0.87890625 C-4.2368648 -0.98974468 -2.41851841 -0.77738092 0 0 Z " fill="#C8DAF3" transform="translate(376,678)"/>
</svg>
